<?xml version="1.0" standalone="no"?>
<!DOCTYPE svg PUBLIC "-//W3C//DTD SVG 20010904//EN"
 "http://www.w3.org/TR/2001/REC-SVG-20010904/DTD/svg10.dtd">
<svg version="1.0" xmlns="http://www.w3.org/2000/svg"
 width="300.000000pt" height="300.000000pt" viewBox="0 0 300.000000 300.000000"
 preserveAspectRatio="xMidYMid meet">

<g transform="translate(0.000000,300.000000) scale(0.100000,-0.100000)"
fill="#000000" stroke="none">
<path d="M713 2180 c-65 -39 -63 -18 -63 -672 0 -563 1 -595 19 -624 25 -40
77 -64 141 -64 64 0 116 24 141 64 18 29 19 61 19 624 0 654 2 633 -63 672
-23 14 -50 20 -97 20 -47 0 -74 -6 -97 -20z"/>
<path d="M2113 2185 c-18 -8 -42 -29 -53 -47 -19 -32 -20 -49 -20 -627 0 -578
1 -595 20 -626 26 -43 75 -65 142 -65 73 0 118 24 146 80 l23 45 -3 580 c-3
646 0 612 -71 655 -39 24 -135 26 -184 5z"/>
<path d="M403 1925 c-18 -8 -42 -29 -53 -47 -19 -31 -20 -50 -20 -368 0 -310
1 -337 19 -366 51 -83 200 -85 251 -2 19 31 20 49 20 368 0 248 -4 341 -13
360 -31 62 -128 88 -204 55z"/>
<path d="M2463 1925 c-18 -8 -42 -29 -53 -47 -19 -31 -20 -50 -20 -368 0 -310
1 -337 19 -366 51 -83 200 -85 251 -2 19 31 20 50 20 366 0 368 -1 375 -63
412 -38 23 -107 26 -154 5z"/>
<path d="M1000 1510 l0 -210 55 0 55 0 0 210 0 210 -55 0 -55 0 0 -210z"/>
<path d="M1900 1510 l0 -211 58 3 57 3 3 208 2 207 -60 0 -60 0 0 -210z"/>
<path d="M160 1663 c-45 -17 -50 -32 -50 -150 0 -147 6 -155 118 -151 l77 3 0
150 0 150 -65 2 c-36 1 -72 -1 -80 -4z"/>
<path d="M2710 1515 l0 -155 75 0 c106 0 115 11 115 146 0 56 -3 110 -6 119
-11 27 -60 45 -124 45 l-60 0 0 -155z"/>
<path d="M1140 1515 l0 -105 370 0 370 0 0 105 0 105 -370 0 -370 0 0 -105z"/>
</g>
</svg>
